<mxfile host="65bd71144e">
    <diagram id="6MmhZP-7fnxyGptQFK5E" name="Page-1">
        <mxGraphModel dx="485" dy="276" grid="0" gridSize="10" guides="1" tooltips="1" connect="1" arrows="1" fold="1" page="1" pageScale="1" pageWidth="1169" pageHeight="827" background="#ffffff" math="0" shadow="0">
            <root>
                <mxCell id="0"/>
                <mxCell id="1" parent="0"/>
                <mxCell id="3" value="localStorage || sessionStorage" style="rounded=0;whiteSpace=wrap;html=1;align=left;verticalAlign=top;" parent="1" vertex="1">
                    <mxGeometry x="621" y="642" width="120" height="36" as="geometry"/>
                </mxCell>
                <mxCell id="10" value="Store" style="whiteSpace=wrap;html=1;dashed=1;resizeHeight=1;resizeWidth=1;imageAspect=0;align=left;verticalAlign=top;spacing=7;" parent="1" vertex="1">
                    <mxGeometry x="10" y="290" width="270" height="470" as="geometry"/>
                </mxCell>
                <mxCell id="11" value="Dispatcher" style="rounded=1;whiteSpace=wrap;html=1;" parent="1" vertex="1">
                    <mxGeometry x="57.5" y="318" width="192.5" height="60" as="geometry"/>
                </mxCell>
                <mxCell id="33" value="" style="group" parent="1" vertex="1" connectable="0">
                    <mxGeometry x="57.5" y="586" width="192.5" height="150" as="geometry"/>
                </mxCell>
                <mxCell id="14" value="State" style="rounded=1;whiteSpace=wrap;html=1;verticalAlign=top;" parent="33" vertex="1">
                    <mxGeometry width="192.5" height="150" as="geometry"/>
                </mxCell>
                <mxCell id="16" value="" style="rounded=1;whiteSpace=wrap;html=1;fillColor=#1ba1e2;fontColor=#ffffff;strokeColor=#006EAF;" parent="33" vertex="1">
                    <mxGeometry x="79.75" y="30" width="33" height="33" as="geometry"/>
                </mxCell>
                <mxCell id="17" value="" style="rounded=1;whiteSpace=wrap;html=1;fillColor=#1ba1e2;fontColor=#ffffff;strokeColor=#006EAF;" parent="33" vertex="1">
                    <mxGeometry x="39.75" y="67" width="33" height="33" as="geometry"/>
                </mxCell>
                <mxCell id="18" value="" style="rounded=1;whiteSpace=wrap;html=1;fillColor=#1ba1e2;fontColor=#ffffff;strokeColor=#006EAF;" parent="33" vertex="1">
                    <mxGeometry x="79.75" y="104" width="33" height="33" as="geometry"/>
                </mxCell>
                <mxCell id="20" value="" style="rounded=1;whiteSpace=wrap;html=1;fillColor=#1ba1e2;fontColor=#ffffff;strokeColor=#006EAF;" parent="33" vertex="1">
                    <mxGeometry x="119.75" y="67" width="33" height="33" as="geometry"/>
                </mxCell>
                <mxCell id="21" value="" style="endArrow=none;html=1;exitX=1;exitY=0.5;exitDx=0;exitDy=0;entryX=0;entryY=0.5;entryDx=0;entryDy=0;" parent="33" source="17" target="20" edge="1">
                    <mxGeometry width="50" height="50" relative="1" as="geometry">
                        <mxPoint x="32.5" y="110" as="sourcePoint"/>
                        <mxPoint x="82.5" y="60" as="targetPoint"/>
                    </mxGeometry>
                </mxCell>
                <mxCell id="22" value="" style="endArrow=none;html=1;exitX=1;exitY=0.5;exitDx=0;exitDy=0;entryX=0.5;entryY=1;entryDx=0;entryDy=0;" parent="33" source="18" target="20" edge="1">
                    <mxGeometry width="50" height="50" relative="1" as="geometry">
                        <mxPoint x="82.75000000000006" y="93.49999999999989" as="sourcePoint"/>
                        <mxPoint x="129.75" y="93.49999999999989" as="targetPoint"/>
                    </mxGeometry>
                </mxCell>
                <mxCell id="23" value="" style="endArrow=none;html=1;exitX=0;exitY=0.5;exitDx=0;exitDy=0;entryX=1;entryY=0.5;entryDx=0;entryDy=0;" parent="33" source="20" target="16" edge="1">
                    <mxGeometry width="50" height="50" relative="1" as="geometry">
                        <mxPoint x="122.75000000000006" y="130.4999999999999" as="sourcePoint"/>
                        <mxPoint x="146.25" y="110" as="targetPoint"/>
                    </mxGeometry>
                </mxCell>
                <mxCell id="34" value="" style="group" parent="1" vertex="1" connectable="0">
                    <mxGeometry x="57.5" y="420" width="192.5" height="140" as="geometry"/>
                </mxCell>
                <mxCell id="13" value="Reducer" style="rounded=1;whiteSpace=wrap;html=1;dashed=1;verticalAlign=top;" parent="34" vertex="1">
                    <mxGeometry width="192.5" height="140" as="geometry"/>
                </mxCell>
                <mxCell id="25" value="R" style="rounded=1;whiteSpace=wrap;html=1;fillColor=#1ba1e2;fontColor=#ffffff;strokeColor=#006EAF;" parent="34" vertex="1">
                    <mxGeometry x="79.75" y="50" width="33" height="33" as="geometry"/>
                </mxCell>
                <mxCell id="26" value="R" style="rounded=1;whiteSpace=wrap;html=1;fillColor=#1ba1e2;fontColor=#ffffff;strokeColor=#006EAF;" parent="34" vertex="1">
                    <mxGeometry x="39.75" y="60" width="33" height="33" as="geometry"/>
                </mxCell>
                <mxCell id="27" value="R" style="rounded=1;whiteSpace=wrap;html=1;fillColor=#1ba1e2;fontColor=#ffffff;strokeColor=#006EAF;" parent="34" vertex="1">
                    <mxGeometry x="119.75" y="70" width="33" height="33" as="geometry"/>
                </mxCell>
                <mxCell id="28" value="" style="endArrow=none;html=1;exitX=0.5;exitY=1;exitDx=0;exitDy=0;entryX=0.5;entryY=1;entryDx=0;entryDy=0;rounded=0;" parent="34" source="26" target="27" edge="1">
                    <mxGeometry width="50" height="50" relative="1" as="geometry">
                        <mxPoint x="62.5" y="160" as="sourcePoint"/>
                        <mxPoint x="112.5" y="110" as="targetPoint"/>
                        <Array as="points">
                            <mxPoint x="56.5" y="120"/>
                            <mxPoint x="92.5" y="120"/>
                            <mxPoint x="136.5" y="120"/>
                        </Array>
                    </mxGeometry>
                </mxCell>
                <mxCell id="29" value="" style="endArrow=none;html=1;exitX=0.5;exitY=0;exitDx=0;exitDy=0;entryX=0.5;entryY=0;entryDx=0;entryDy=0;rounded=0;" parent="34" source="26" target="27" edge="1">
                    <mxGeometry width="50" height="50" relative="1" as="geometry">
                        <mxPoint x="66.24999999999994" y="103" as="sourcePoint"/>
                        <mxPoint x="146.24999999999994" y="113" as="targetPoint"/>
                        <Array as="points">
                            <mxPoint x="56.5" y="30"/>
                            <mxPoint x="136.5" y="30"/>
                        </Array>
                    </mxGeometry>
                </mxCell>
                <mxCell id="30" value="" style="endArrow=none;html=1;rounded=0;entryX=0.5;entryY=1;entryDx=0;entryDy=0;" parent="34" target="25" edge="1">
                    <mxGeometry width="50" height="50" relative="1" as="geometry">
                        <mxPoint x="96.5" y="120" as="sourcePoint"/>
                        <mxPoint x="122.5" y="100" as="targetPoint"/>
                    </mxGeometry>
                </mxCell>
                <mxCell id="31" value="" style="endArrow=none;html=1;rounded=0;entryX=0.5;entryY=0;entryDx=0;entryDy=0;" parent="34" target="25" edge="1">
                    <mxGeometry width="50" height="50" relative="1" as="geometry">
                        <mxPoint x="96.5" y="30" as="sourcePoint"/>
                        <mxPoint x="106.25" y="93" as="targetPoint"/>
                    </mxGeometry>
                </mxCell>
                <mxCell id="35" value="" style="endArrow=classic;html=1;rounded=0;exitX=0.5;exitY=1;exitDx=0;exitDy=0;entryX=0.5;entryY=0;entryDx=0;entryDy=0;" parent="1" source="13" target="14" edge="1">
                    <mxGeometry width="50" height="50" relative="1" as="geometry">
                        <mxPoint x="140" y="630" as="sourcePoint"/>
                        <mxPoint x="190" y="580" as="targetPoint"/>
                    </mxGeometry>
                </mxCell>
                <mxCell id="36" value="" style="endArrow=classic;html=1;rounded=0;entryX=0.5;entryY=0;entryDx=0;entryDy=0;exitX=0;exitY=0.5;exitDx=0;exitDy=0;" parent="1" source="14" target="13" edge="1">
                    <mxGeometry width="50" height="50" relative="1" as="geometry">
                        <mxPoint x="30" y="530" as="sourcePoint"/>
                        <mxPoint x="80" y="480" as="targetPoint"/>
                        <Array as="points">
                            <mxPoint x="40" y="661"/>
                            <mxPoint x="40" y="400"/>
                            <mxPoint x="154" y="400"/>
                        </Array>
                    </mxGeometry>
                </mxCell>
                <mxCell id="37" value="Reducers use copies of state" style="edgeLabel;html=1;align=center;verticalAlign=middle;resizable=0;points=[];horizontal=0;" parent="36" vertex="1" connectable="0">
                    <mxGeometry x="-0.2116" relative="1" as="geometry">
                        <mxPoint as="offset"/>
                    </mxGeometry>
                </mxCell>
                <mxCell id="38" value="" style="endArrow=classic;html=1;rounded=0;exitX=0.5;exitY=1;exitDx=0;exitDy=0;entryX=0.5;entryY=0;entryDx=0;entryDy=0;" parent="1" source="11" target="13" edge="1">
                    <mxGeometry width="50" height="50" relative="1" as="geometry">
                        <mxPoint x="140" y="440" as="sourcePoint"/>
                        <mxPoint x="190" y="390" as="targetPoint"/>
                    </mxGeometry>
                </mxCell>
                <mxCell id="45" value="Login" style="whiteSpace=wrap;html=1;dashed=1;resizeHeight=1;resizeWidth=1;imageAspect=0;align=left;verticalAlign=top;spacing=7;" parent="1" vertex="1">
                    <mxGeometry x="374" y="628" width="218" height="130" as="geometry"/>
                </mxCell>
                <mxCell id="46" value="Services/auth.service&lt;br style=&quot;font-size: 12px&quot;&gt;&lt;font style=&quot;font-size: 10px&quot;&gt;login(email,password,bool)&lt;/font&gt;" style="rounded=0;whiteSpace=wrap;html=1;fontSize=12;align=left;verticalAlign=top;" parent="1" vertex="1">
                    <mxGeometry x="444" y="694" width="123" height="36" as="geometry"/>
                </mxCell>
                <mxCell id="48" value="" style="endArrow=classic;html=1;rounded=0;fontSize=10;exitX=1;exitY=0.898;exitDx=0;exitDy=0;exitPerimeter=0;entryX=0;entryY=0.5;entryDx=0;entryDy=0;" parent="1" source="10" target="41" edge="1">
                    <mxGeometry width="50" height="50" relative="1" as="geometry">
                        <mxPoint x="291" y="704" as="sourcePoint"/>
                        <mxPoint x="319" y="712" as="targetPoint"/>
                    </mxGeometry>
                </mxCell>
                <mxCell id="50" value="" style="endArrow=classic;html=1;rounded=0;fontSize=12;fontColor=#FF3333;exitX=0.75;exitY=0;exitDx=0;exitDy=0;entryX=0;entryY=0.5;entryDx=0;entryDy=0;" parent="1" source="46" target="3" edge="1">
                    <mxGeometry width="50" height="50" relative="1" as="geometry">
                        <mxPoint x="631" y="811" as="sourcePoint"/>
                        <mxPoint x="611" y="781" as="targetPoint"/>
                        <Array as="points">
                            <mxPoint x="536" y="660"/>
                        </Array>
                    </mxGeometry>
                </mxCell>
                <mxCell id="52" value="" style="endArrow=classic;html=1;rounded=0;fontSize=12;fontColor=#FF3333;exitX=0.5;exitY=0;exitDx=0;exitDy=0;entryX=0.605;entryY=1;entryDx=0;entryDy=0;entryPerimeter=0;" parent="1" source="46" target="62" edge="1">
                    <mxGeometry width="50" height="50" relative="1" as="geometry">
                        <mxPoint x="484" y="741" as="sourcePoint"/>
                        <mxPoint x="506" y="600" as="targetPoint"/>
                    </mxGeometry>
                </mxCell>
                <mxCell id="53" value="Axios" style="rounded=0;whiteSpace=wrap;html=1;align=left;verticalAlign=top;" parent="1" vertex="1">
                    <mxGeometry x="621" y="694" width="120" height="36" as="geometry"/>
                </mxCell>
                <mxCell id="54" value="" style="endArrow=classic;startArrow=classic;html=1;rounded=0;fontSize=12;fontColor=#FF3333;entryX=0;entryY=0.5;entryDx=0;entryDy=0;exitX=1;exitY=0.5;exitDx=0;exitDy=0;" parent="1" source="46" target="53" edge="1">
                    <mxGeometry width="50" height="50" relative="1" as="geometry">
                        <mxPoint x="567" y="712" as="sourcePoint"/>
                        <mxPoint x="557" y="828" as="targetPoint"/>
                    </mxGeometry>
                </mxCell>
                <mxCell id="58" value="" style="endArrow=classic;html=1;rounded=0;fontSize=12;fontColor=default;exitX=1;exitY=0.25;exitDx=0;exitDy=0;" parent="1" source="53" edge="1">
                    <mxGeometry width="50" height="50" relative="1" as="geometry">
                        <mxPoint x="780" y="739" as="sourcePoint"/>
                        <mxPoint x="819" y="703" as="targetPoint"/>
                    </mxGeometry>
                </mxCell>
                <mxCell id="59" value="request" style="edgeLabel;html=1;align=center;verticalAlign=middle;resizable=0;points=[];fontSize=12;fontColor=default;" parent="58" vertex="1" connectable="0">
                    <mxGeometry x="-0.1222" relative="1" as="geometry">
                        <mxPoint x="1" as="offset"/>
                    </mxGeometry>
                </mxCell>
                <mxCell id="60" value="" style="endArrow=classic;html=1;rounded=0;fontSize=12;fontColor=default;entryX=1;entryY=0.75;entryDx=0;entryDy=0;" parent="1" target="53" edge="1">
                    <mxGeometry width="50" height="50" relative="1" as="geometry">
                        <mxPoint x="817" y="721" as="sourcePoint"/>
                        <mxPoint x="839" y="724" as="targetPoint"/>
                    </mxGeometry>
                </mxCell>
                <mxCell id="61" value="response" style="edgeLabel;html=1;align=center;verticalAlign=middle;resizable=0;points=[];fontSize=12;fontColor=default;" parent="60" vertex="1" connectable="0">
                    <mxGeometry x="0.1551" relative="1" as="geometry">
                        <mxPoint x="7" y="-1" as="offset"/>
                    </mxGeometry>
                </mxCell>
                <mxCell id="41" value="Provider" style="whiteSpace=wrap;html=1;resizeHeight=1;resizeWidth=1;imageAspect=0;align=left;verticalAlign=top;spacing=7;" parent="1" vertex="1">
                    <mxGeometry x="299" y="694" width="59" height="36" as="geometry"/>
                </mxCell>
                <mxCell id="62" value="Profile" style="whiteSpace=wrap;html=1;dashed=1;resizeHeight=1;resizeWidth=1;imageAspect=0;align=left;verticalAlign=top;spacing=7;" vertex="1" parent="1">
                    <mxGeometry x="374" y="465" width="218" height="130" as="geometry"/>
                </mxCell>
                <mxCell id="63" value="" style="endArrow=classic;html=1;fontSize=10;fontColor=#F0F0F0;exitX=1;exitY=0.5;exitDx=0;exitDy=0;entryX=0;entryY=0.5;entryDx=0;entryDy=0;" edge="1" parent="1" source="41" target="46">
                    <mxGeometry width="50" height="50" relative="1" as="geometry">
                        <mxPoint x="333" y="811" as="sourcePoint"/>
                        <mxPoint x="383" y="761" as="targetPoint"/>
                    </mxGeometry>
                </mxCell>
                <mxCell id="64" value="&lt;span style=&quot;font-size: 12px&quot;&gt;onSubmit&lt;/span&gt;" style="edgeLabel;html=1;align=center;verticalAlign=middle;resizable=0;points=[];fontSize=10;fontColor=default;" vertex="1" connectable="0" parent="63">
                    <mxGeometry x="-0.1034" y="-1" relative="1" as="geometry">
                        <mxPoint x="7" y="-3" as="offset"/>
                    </mxGeometry>
                </mxCell>
            </root>
        </mxGraphModel>
    </diagram>
</mxfile>
